<svg id="773ebbf3-9acc-4485-8761-716bfbae1031" data-name="Layer 1" xmlns="http://www.w3.org/2000/svg" width="75.06" height="100" viewBox="0 0 75.06 100"><title>icon-tablet-green</title><path d="M37.53,92.29a2.55,2.55,0,1,1,2.55-2.55A2.55,2.55,0,0,1,37.53,92.29Z" fill="#67ad44"/><path d="M42.14,10.6H32.26a1.47,1.47,0,0,1,0-2.94h9.88a1.47,1.47,0,1,1,0,2.94Z" fill="#67ad44"/><path d="M66.84,0H8.21A8.22,8.22,0,0,0,0,8.21V91.79A8.22,8.22,0,0,0,8.21,100H66.84a8.22,8.22,0,0,0,8.21-8.21V8.21A8.22,8.22,0,0,0,66.84,0ZM8.21,2.94H66.84a5.28,5.28,0,0,1,5.27,5.27v71.7H2.94V8.21A5.28,5.28,0,0,1,8.21,2.94ZM66.84,97.06H8.21a5.28,5.28,0,0,1-5.27-5.27V82.85H72.11v8.93A5.28,5.28,0,0,1,66.84,97.06Z" fill="#67ad44"/></svg>