<?xml version="1.0" encoding="utf-8"?>
<!-- Generator: Adobe Illustrator 21.0.2, SVG Export Plug-In . SVG Version: 6.00 Build 0)  -->
<svg version="1.1" id="Layer_1" xmlns="http://www.w3.org/2000/svg" xmlns:xlink="http://www.w3.org/1999/xlink" x="0px" y="0px"
	 width="75.057px" height="100px" viewBox="0 0 75.057 100" style="enable-background:new 0 0 75.057 100;" xml:space="preserve">
<style type="text/css">
	.st0{fill:#007EB7;}
</style>
<g>
	<g>
		<g>
			<path class="st0" d="M37.529,92.285c-1.404,0-2.546-1.142-2.546-2.546c0-1.404,1.142-2.546,2.546-2.546
				c1.404,0,2.546,1.142,2.546,2.546C40.074,91.143,38.932,92.285,37.529,92.285z"/>
		</g>
	</g>
	<g>
		<g>
			<path class="st0" d="M42.143,10.596h-9.879c-0.813,0-1.471-0.659-1.471-1.471s0.659-1.471,1.471-1.471h9.879
				c0.813,0,1.471,0.659,1.471,1.471S42.956,10.596,42.143,10.596z"/>
		</g>
	</g>
	<g>
		<path class="st0" d="M66.842,0H8.215C3.685,0,0,3.685,0,8.215v83.571C0,96.315,3.685,100,8.215,100h58.627
			c4.53,0,8.215-3.685,8.215-8.215V8.215C75.057,3.685,71.372,0,66.842,0z M8.215,2.943h58.627c2.907,0,5.272,2.365,5.272,5.272
			v71.696H2.943V8.215C2.943,5.308,5.308,2.943,8.215,2.943z M66.842,97.057H8.215c-2.907,0-5.272-2.365-5.272-5.272v-8.931h69.171
			v8.931C72.114,94.692,69.749,97.057,66.842,97.057z"/>
	</g>
</g>
</svg>
