<svg id="82430f21-f718-44d2-88ee-0f3c0bec7763" data-name="Layer 1" xmlns="http://www.w3.org/2000/svg" width="75.057" height="100" viewBox="0 0 75.057 100"><path d="M37.529,92.285a2.546,2.546,0,1,1,2.546-2.546A2.549,2.549,0,0,1,37.529,92.285Z" fill="#007eb7"/><path d="M42.143,10.6H32.264a1.471,1.471,0,0,1,0-2.943h9.879a1.471,1.471,0,1,1,0,2.943Z" fill="#007eb7"/><path d="M66.842,0H8.215A8.224,8.224,0,0,0,0,8.215V91.785A8.224,8.224,0,0,0,8.215,100H66.842a8.224,8.224,0,0,0,8.215-8.215V8.215A8.224,8.224,0,0,0,66.842,0ZM8.215,2.943H66.842a5.278,5.278,0,0,1,5.272,5.272v71.7H2.943V8.215A5.278,5.278,0,0,1,8.215,2.943ZM66.842,97.057H8.215a5.278,5.278,0,0,1-5.272-5.272V82.854H72.114v8.931A5.278,5.278,0,0,1,66.842,97.057Z" fill="#007eb7"/></svg>