<?xml version="1.0" encoding="utf-8"?>
<!-- Generator: Adobe Illustrator 21.0.2, SVG Export Plug-In . SVG Version: 6.00 Build 0)  -->
<svg version="1.1" id="Layer_1" xmlns="http://www.w3.org/2000/svg" xmlns:xlink="http://www.w3.org/1999/xlink" x="0px" y="0px"
	 width="100px" height="87.098px" viewBox="0 0 100 87.098" style="enable-background:new 0 0 100 87.098;" xml:space="preserve">
<style type="text/css">
	.st0{fill:#007EB7;}
</style>
<path class="st0" d="M27.95,26.885v-6.522c2.33,0.393,4.149,1.697,4.149,3.153c0,0.794,0.643,1.437,1.437,1.437
	c0.794,0,1.437-0.643,1.437-1.437c0-3.092-2.989-5.576-7.024-6.06v-3.099c0-0.794-0.643-1.437-1.437-1.437s-1.437,0.643-1.437,1.437
	v3.099c-4.035,0.484-7.024,2.968-7.024,6.06s2.989,5.576,7.024,6.06v6.522c-2.33-0.393-4.149-1.697-4.149-3.154
	c0-0.794-0.643-1.437-1.437-1.437c-0.794,0-1.437,0.643-1.437,1.437c0,3.091,2.989,5.576,7.024,6.06v3.305
	c0,0.794,0.643,1.437,1.437,1.437s1.437-0.643,1.437-1.437v-3.305c4.035-0.484,7.024-2.968,7.024-6.06
	C34.974,29.853,31.985,27.369,27.95,26.885z M20.926,23.516c0-1.456,1.819-2.76,4.149-3.153v6.307
	C22.745,26.276,20.926,24.972,20.926,23.516z M27.95,36.098v-6.307c2.33,0.393,4.149,1.697,4.149,3.153
	C32.1,34.401,30.28,35.705,27.95,36.098z"/>
<path class="st0" d="M51.437,26.885v-6.522c2.33,0.393,4.149,1.697,4.149,3.153c0,0.794,0.643,1.437,1.437,1.437
	c0.794,0,1.437-0.643,1.437-1.437c0-3.092-2.989-5.576-7.024-6.06v-3.099c0-0.794-0.643-1.437-1.437-1.437
	c-0.794,0-1.437,0.643-1.437,1.437v3.099c-4.035,0.484-7.024,2.968-7.024,6.06s2.989,5.576,7.024,6.06v6.522
	c-2.33-0.393-4.149-1.697-4.149-3.154c0-0.794-0.643-1.437-1.437-1.437c-0.794,0-1.437,0.643-1.437,1.437
	c0,3.091,2.989,5.576,7.024,6.06v3.305c0,0.794,0.643,1.437,1.437,1.437c0.794,0,1.437-0.643,1.437-1.437v-3.305
	c4.035-0.484,7.024-2.968,7.024-6.06C58.461,29.853,55.472,27.369,51.437,26.885z M44.414,23.516c0-1.456,1.819-2.76,4.149-3.153
	v6.307C46.233,26.276,44.414,24.972,44.414,23.516z M51.437,36.098v-6.307c2.33,0.393,4.149,1.697,4.149,3.153
	C55.586,34.401,53.767,35.705,51.437,36.098z"/>
<path class="st0" d="M74.924,26.885v-6.522c2.33,0.393,4.149,1.697,4.149,3.153c0,0.794,0.643,1.437,1.437,1.437
	c0.794,0,1.437-0.643,1.437-1.437c0-3.092-2.989-5.576-7.024-6.06v-3.099c0-0.794-0.643-1.437-1.437-1.437
	c-0.794,0-1.437,0.643-1.437,1.437v3.099c-4.035,0.484-7.024,2.968-7.024,6.06s2.989,5.576,7.024,6.06v6.522
	c-2.33-0.393-4.149-1.697-4.149-3.153c0-0.794-0.643-1.437-1.437-1.437c-0.794,0-1.437,0.643-1.437,1.437
	c0,3.091,2.989,5.576,7.024,6.06v3.305c0,0.794,0.643,1.437,1.437,1.437c0.794,0,1.437-0.643,1.437-1.437v-3.305
	c4.035-0.484,7.024-2.968,7.024-6.06C81.948,29.853,78.959,27.369,74.924,26.885z M67.901,23.516c0-1.456,1.819-2.76,4.149-3.153
	v6.307C69.72,26.276,67.901,24.972,67.901,23.516z M74.924,36.098v-6.307c2.33,0.393,4.149,1.697,4.149,3.153
	C79.074,34.401,77.255,35.705,74.924,36.098z"/>
<g>
	<path class="st0" d="M66.708,87.098H33.292c-0.794,0-1.437-0.643-1.437-1.437c0-0.794,0.643-1.437,1.437-1.437h33.416
		c0.794,0,1.437,0.643,1.437,1.437C68.145,86.455,67.502,87.098,66.708,87.098z"/>
</g>
<path class="st0" d="M92.597,0H7.403C3.321,0,0,3.321,0,7.403v57.873c0,4.082,3.321,7.403,7.403,7.403H38.49L36.137,85.4
	c-0.078,0.42,0.035,0.853,0.308,1.181c0.273,0.328,0.678,0.518,1.105,0.518h24.899c0.001,0,0.003,0,0.004,0
	c0.794,0,1.437-0.643,1.437-1.437c0-0.128-0.017-0.253-0.048-0.371L61.51,72.679h31.087c4.082,0,7.403-3.321,7.403-7.403V7.403
	C100,3.321,96.679,0,92.597,0z M39.278,84.224l2.12-11.462h17.203l2.12,11.462H39.278z M96.92,65.276
	c0,2.384-1.94,4.324-4.324,4.324H7.403c-2.384,0-4.324-1.94-4.324-4.324v-9.757H96.92V65.276z M96.92,52.645H3.08V7.403
	c0-2.384,1.94-4.324,4.324-4.324h85.193c2.384,0,4.324,1.94,4.324,4.324V52.645z"/>
<circle class="st0" cx="50" cy="62.297" r="2.646"/>
</svg>
