<?xml version="1.0" encoding="utf-8"?>
<!-- Generator: Adobe Illustrator 21.0.2, SVG Export Plug-In . SVG Version: 6.00 Build 0)  -->
<svg version="1.1" id="Layer_1" xmlns="http://www.w3.org/2000/svg" xmlns:xlink="http://www.w3.org/1999/xlink" x="0px" y="0px"
	 width="120px" height="90.757px" viewBox="0 0 120 90.757" style="enable-background:new 0 0 120 90.757;" xml:space="preserve">
<style type="text/css">
	.st0{fill:#007EB7;}
</style>
<g>
	<path class="st0" d="M114.18,0H5.82C2.611,0,0,2.611,0,5.82v63.706c0,3.209,2.611,5.82,5.82,5.82H47.6l-2.275,12.301h-4.839
		c-0.859,0-1.555,0.696-1.555,1.555s0.696,1.555,1.555,1.555h6.133h26.763c0.001,0,0.003,0,0.004,0h6.128
		c0.859,0,1.555-0.696,1.555-1.555s-0.696-1.555-1.555-1.555h-4.839L72.4,75.346h41.78c3.209,0,5.82-2.611,5.82-5.82V5.82
		C120,2.611,117.389,0,114.18,0z M48.488,87.647l2.275-12.3h18.474l2.275,12.3H48.488z M5.82,3.11h108.36
		c1.494,0,2.71,1.216,2.71,2.71v58.751H3.11V5.82C3.11,4.326,4.326,3.11,5.82,3.11z M114.18,72.236H5.82
		c-1.494,0-2.71-1.216-2.71-2.71v-1.844H116.89v1.844C116.89,71.02,115.674,72.236,114.18,72.236z"/>
</g>
<g>
	<path class="st0" d="M52.161,26.173l17.678,9.678l-17.678,9.678V26.173 M52.161,23.173c-0.53,0-1.059,0.14-1.529,0.419
		c-0.912,0.54-1.471,1.521-1.471,2.581v19.355c0,1.06,0.559,2.041,1.471,2.581c0.471,0.279,1,0.419,1.529,0.419
		c0.495,0,0.991-0.123,1.441-0.369l17.678-9.678c0.962-0.526,1.559-1.535,1.559-2.631s-0.598-2.105-1.559-2.631l-17.678-9.678
		C53.152,23.295,52.657,23.173,52.161,23.173L52.161,23.173z"/>
</g>
</svg>
