<svg id="3ae9539c-57a6-49a0-834f-7be9e1fd77d3" data-name="Layer 1" xmlns="http://www.w3.org/2000/svg" width="30" height="42" viewBox="0 0 30 42"><title>icon-map-marker</title><path d="M4.41,4.31A14.61,14.61,0,0,1,15,0,14.61,14.61,0,0,1,25.59,4.31,14,14,0,0,1,30,14.72q0,4.88-3.75,11.72a67.45,67.45,0,0,1-7.5,11.25L15,42q-.66-.66-1.64-1.83T9.8,35.63q-2.58-3.37-4.55-6.56a48.42,48.42,0,0,1-3.61-7.22A19.28,19.28,0,0,1,0,14.72,14,14,0,0,1,4.41,4.31Zm6.8,14.11A5.16,5.16,0,0,0,15,20a5.16,5.16,0,0,0,3.8-1.55,5.21,5.21,0,0,0,0-7.41A5.16,5.16,0,0,0,15,9.47,5.16,5.16,0,0,0,11.2,11a5.21,5.21,0,0,0,0,7.41Z" fill="#da4c29"/></svg>