<?xml version="1.0" encoding="utf-8"?>
<!-- Generator: Adobe Illustrator 21.0.2, SVG Export Plug-In . SVG Version: 6.00 Build 0)  -->
<svg version="1.1" id="Layer_1" xmlns="http://www.w3.org/2000/svg" xmlns:xlink="http://www.w3.org/1999/xlink" x="0px" y="0px"
	 width="90px" height="68.068px" viewBox="0 0 90 68.068" style="enable-background:new 0 0 90 68.068;" xml:space="preserve">
<style type="text/css">
	.st0{fill:#67AD44;}
</style>
<g>
	<g>
		<path class="st0" d="M85.635,0H4.365C1.958,0,0,1.958,0,4.365v47.779c0,2.407,1.958,4.365,4.365,4.365H35.7l-1.706,9.225h-3.629
			c-0.644,0-1.166,0.522-1.166,1.166s0.522,1.166,1.166,1.166h4.599h20.072c0.001,0,0.002,0,0.003,0h4.596
			c0.644,0,1.166-0.522,1.166-1.166s-0.522-1.166-1.166-1.166h-3.629L54.3,56.51h31.335c2.407,0,4.365-1.958,4.365-4.365V4.365
			C90,1.958,88.042,0,85.635,0z M36.366,65.735l1.706-9.225h13.855l1.706,9.225H36.366z M4.365,2.333h81.27
			c1.121,0,2.032,0.912,2.032,2.032v44.063H2.333V4.365C2.333,3.244,3.244,2.333,4.365,2.333z M85.635,54.177H4.365
			c-1.121,0-2.032-0.912-2.032-2.032v-1.383h85.334v1.383C87.667,53.265,86.755,54.177,85.635,54.177z"/>
	</g>
</g>
<g>
	<path class="st0" d="M39.121,19.629l13.258,7.258l-13.258,7.258V19.629 M39.121,17.379c-0.397,0-0.794,0.105-1.147,0.314
		c-0.684,0.405-1.103,1.141-1.103,1.936v14.517c0,0.795,0.419,1.53,1.103,1.936c0.353,0.209,0.75,0.314,1.147,0.314
		c0.372,0,0.743-0.092,1.08-0.276l13.258-7.258c0.721-0.395,1.17-1.151,1.17-1.974s-0.448-1.579-1.17-1.974l-13.258-7.258
		C39.864,17.471,39.492,17.379,39.121,17.379L39.121,17.379z"/>
</g>
</svg>
