<?xml version="1.0" encoding="utf-8"?>
<!-- Generator: Adobe Illustrator 21.0.2, SVG Export Plug-In . SVG Version: 6.00 Build 0)  -->
<svg version="1.1" id="Layer_1" xmlns="http://www.w3.org/2000/svg" xmlns:xlink="http://www.w3.org/1999/xlink" x="0px" y="0px"
	 width="75px" height="65.324px" viewBox="0 0 75 65.324" style="enable-background:new 0 0 75 65.324;" xml:space="preserve">
<style type="text/css">
	.st0{fill:#67AD44;}
</style>
<g>
	<path class="st0" d="M20.963,20.164v-4.892c1.748,0.295,3.112,1.273,3.112,2.365c0,0.595,0.483,1.078,1.078,1.078
		c0.595,0,1.078-0.483,1.078-1.078c0-2.319-2.241-4.182-5.268-4.545v-2.324c0-0.595-0.483-1.078-1.078-1.078
		s-1.078,0.483-1.078,1.078v2.324c-3.026,0.363-5.268,2.226-5.268,4.545s2.241,4.182,5.268,4.545v4.892
		c-1.748-0.295-3.112-1.273-3.112-2.365c0-0.595-0.483-1.078-1.078-1.078c-0.595,0-1.078,0.483-1.078,1.078
		c0,2.319,2.241,4.182,5.268,4.545v2.478c0,0.595,0.483,1.078,1.078,1.078s1.078-0.483,1.078-1.078v-2.478
		c3.026-0.363,5.268-2.226,5.268-4.545C26.23,22.39,23.989,20.526,20.963,20.164z M15.695,17.637c0-1.092,1.364-2.07,3.112-2.365
		v4.73C17.059,19.707,15.695,18.729,15.695,17.637z M20.963,27.074v-4.73c1.748,0.295,3.112,1.273,3.112,2.365
		S22.71,26.779,20.963,27.074z"/>
</g>
<g>
	<path class="st0" d="M38.578,20.164v-4.892c1.748,0.295,3.112,1.273,3.112,2.365c0,0.595,0.483,1.078,1.078,1.078
		c0.595,0,1.078-0.483,1.078-1.078c0-2.319-2.242-4.182-5.268-4.545v-2.324c0-0.595-0.483-1.078-1.078-1.078
		c-0.595,0-1.078,0.483-1.078,1.078v2.324c-3.026,0.363-5.268,2.226-5.268,4.545s2.241,4.182,5.268,4.545v4.892
		c-1.748-0.295-3.112-1.273-3.112-2.365c0-0.595-0.483-1.078-1.078-1.078c-0.595,0-1.078,0.483-1.078,1.078
		c0,2.319,2.241,4.182,5.268,4.545v2.478c0,0.595,0.483,1.078,1.078,1.078c0.595,0,1.078-0.483,1.078-1.078v-2.478
		c3.026-0.363,5.268-2.226,5.268-4.545C43.846,22.39,41.604,20.526,38.578,20.164z M33.31,17.637c0-1.092,1.364-2.07,3.112-2.365
		v4.73C34.674,19.707,33.31,18.729,33.31,17.637z M38.578,27.074v-4.73c1.748,0.295,3.112,1.273,3.112,2.365
		S40.326,26.779,38.578,27.074z"/>
</g>
<g>
	<path class="st0" d="M56.193,20.164v-4.892c1.748,0.295,3.112,1.273,3.112,2.365c0,0.595,0.483,1.078,1.078,1.078
		c0.595,0,1.078-0.483,1.078-1.078c0-2.319-2.242-4.182-5.268-4.545v-2.324c0-0.595-0.483-1.078-1.078-1.078
		c-0.595,0-1.078,0.483-1.078,1.078v2.324c-3.026,0.363-5.268,2.226-5.268,4.545s2.242,4.182,5.268,4.545v4.892
		c-1.748-0.295-3.112-1.273-3.112-2.365c0-0.595-0.483-1.078-1.078-1.078c-0.595,0-1.078,0.483-1.078,1.078
		c0,2.319,2.242,4.182,5.268,4.545v2.478c0,0.595,0.483,1.078,1.078,1.078c0.595,0,1.078-0.483,1.078-1.078v-2.478
		c3.026-0.363,5.268-2.226,5.268-4.545C61.461,22.39,59.219,20.526,56.193,20.164z M50.926,17.637c0-1.092,1.364-2.07,3.112-2.365
		v4.73C52.29,19.707,50.926,18.729,50.926,17.637z M56.193,27.074v-4.73c1.748,0.295,3.112,1.273,3.112,2.365
		S57.941,26.779,56.193,27.074z"/>
</g>
<g>
	<g>
		<path class="st0" d="M50.031,65.324H24.969c-0.595,0-1.078-0.483-1.078-1.078c0-0.595,0.483-1.078,1.078-1.078h25.062
			c0.595,0,1.078,0.483,1.078,1.078C51.109,64.841,50.626,65.324,50.031,65.324z"/>
	</g>
</g>
<g>
	<path class="st0" d="M69.447,0H5.552C2.491,0,0,2.491,0,5.553v43.405c0,3.062,2.491,5.553,5.552,5.553h23.315l-1.765,9.54
		c-0.058,0.315,0.027,0.639,0.231,0.885c0.205,0.246,0.508,0.389,0.829,0.389h18.674c0.001,0,0.002,0,0.003,0
		c0.595,0,1.078-0.483,1.078-1.078c0-0.096-0.012-0.19-0.036-0.278l-1.75-9.458h23.315c3.062,0,5.553-2.491,5.553-5.553V5.553
		C75,2.491,72.509,0,69.447,0z M29.459,63.168l1.59-8.597h12.902l1.59,8.597H29.459z M72.69,48.957c0,1.788-1.455,3.243-3.243,3.243
		H5.552c-1.788,0-3.243-1.455-3.243-3.243v-7.318h70.38V48.957z M72.69,39.483H2.31V5.553c0-1.788,1.455-3.243,3.243-3.243h63.895
		c1.788,0,3.243,1.455,3.243,3.243V39.483z"/>
</g>
<g>
	<circle class="st0" cx="37.5" cy="46.723" r="1.984"/>
</g>
</svg>
