<svg id="c2f01f6c-16f7-423a-86e5-6baacc3c897b" data-name="Layer 1" xmlns="http://www.w3.org/2000/svg" width="100" height="87.1" viewBox="0 0 100 87.1"><title>icon-monitor-usd-green</title><path d="M32.1,23.52a1.44,1.44,0,1,0,2.87,0c0-3.09-3-5.58-7-6.06v-3.1a1.44,1.44,0,0,0-2.87,0v3.1c-4,.48-7,3-7,6.06s3,5.58,7,6.06V36.1c-2.33-.39-4.15-1.7-4.15-3.15a1.44,1.44,0,1,0-2.87,0c0,3.09,3,5.58,7,6.06v3.3a1.44,1.44,0,1,0,2.87,0V39c4-.48,7-3,7-6.06s-3-5.58-7-6.06V20.36C30.28,20.76,32.1,22.06,32.1,23.52Zm-7,3.15c-2.33-.39-4.15-1.7-4.15-3.15s1.82-2.76,4.15-3.15Zm7,6.28c0,1.46-1.82,2.76-4.15,3.15V29.79C30.28,30.18,32.1,31.49,32.1,32.94Z" fill="#67ad44"/><path d="M55.59,23.52a1.44,1.44,0,0,0,2.87,0c0-3.09-3-5.58-7-6.06v-3.1a1.44,1.44,0,0,0-2.87,0v3.1c-4,.48-7,3-7,6.06s3,5.58,7,6.06V36.1c-2.33-.39-4.15-1.7-4.15-3.15a1.44,1.44,0,1,0-2.87,0c0,3.09,3,5.58,7,6.06v3.3a1.44,1.44,0,1,0,2.87,0V39c4-.48,7-3,7-6.06s-3-5.58-7-6.06V20.36C53.77,20.76,55.59,22.06,55.59,23.52Zm-7,3.15c-2.33-.39-4.15-1.7-4.15-3.15s1.82-2.76,4.15-3.15Zm7,6.28c0,1.46-1.82,2.76-4.15,3.15V29.79C53.77,30.18,55.59,31.49,55.59,32.94Z" fill="#67ad44"/><path d="M79.07,23.52a1.44,1.44,0,0,0,2.87,0c0-3.09-3-5.58-7-6.06v-3.1a1.44,1.44,0,0,0-2.87,0v3.1c-4,.48-7,3-7,6.06s3,5.58,7,6.06V36.1c-2.33-.39-4.15-1.7-4.15-3.15a1.44,1.44,0,1,0-2.87,0C65,36,68,38.52,72,39v3.3a1.44,1.44,0,1,0,2.87,0V39c4-.48,7-3,7-6.06s-3-5.58-7-6.06V20.36C77.25,20.76,79.07,22.06,79.07,23.52Zm-7,3.15c-2.33-.39-4.15-1.7-4.15-3.15s1.82-2.76,4.15-3.15Zm7,6.28c0,1.46-1.82,2.76-4.15,3.15V29.79C77.25,30.18,79.07,31.49,79.07,32.94Z" fill="#67ad44"/><path d="M92.6,0H7.4A7.41,7.41,0,0,0,0,7.4V65.28a7.41,7.41,0,0,0,7.4,7.4H38.49L36.35,84.22H33.29a1.44,1.44,0,0,0,0,2.87H66.71a1.44,1.44,0,0,0,0-2.87H63.65L61.51,72.68H92.6a7.41,7.41,0,0,0,7.4-7.4V7.4A7.41,7.41,0,0,0,92.6,0ZM39.28,84.22,41.4,72.76H58.6l2.12,11.46ZM96.92,65.28A4.33,4.33,0,0,1,92.6,69.6H7.4a4.33,4.33,0,0,1-4.32-4.32V55.52H96.92Zm0-12.63H3.08V7.4A4.33,4.33,0,0,1,7.4,3.08H92.6A4.33,4.33,0,0,1,96.92,7.4Z" fill="#67ad44"/><circle cx="50" cy="62.3" r="2.65" fill="#67ad44"/></svg>