<?xml version="1.0" encoding="utf-8"?>
<!-- Generator: Adobe Illustrator 21.0.2, SVG Export Plug-In . SVG Version: 6.00 Build 0)  -->
<svg version="1.1" id="Layer_1" xmlns="http://www.w3.org/2000/svg" xmlns:xlink="http://www.w3.org/1999/xlink" x="0px" y="0px"
	 width="56.293px" height="75px" viewBox="0 0 56.293 75" style="enable-background:new 0 0 56.293 75;" xml:space="preserve">
<style type="text/css">
	.st0{fill:#67AD44;}
</style>
<g>
	<g>
		<g>
			<path class="st0" d="M28.146,69.214c-1.053,0-1.909-0.857-1.909-1.909c0-1.053,0.857-1.909,1.909-1.909
				c1.053,0,1.909,0.857,1.909,1.909C30.056,68.358,29.199,69.214,28.146,69.214z"/>
		</g>
	</g>
	<g>
		<g>
			<path class="st0" d="M31.607,7.947h-7.41c-0.61,0-1.104-0.494-1.104-1.104s0.494-1.104,1.104-1.104h7.41
				c0.61,0,1.104,0.494,1.104,1.104S32.217,7.947,31.607,7.947z"/>
		</g>
	</g>
	<g>
		<path class="st0" d="M50.132,0H6.161C2.764,0,0,2.764,0,6.161v62.678C0,72.236,2.764,75,6.161,75h43.971
			c3.397,0,6.161-2.764,6.161-6.161V6.161C56.293,2.764,53.529,0,50.132,0z M6.161,2.207h43.971c2.18,0,3.954,1.774,3.954,3.954
			v53.772H2.207V6.161C2.207,3.981,3.981,2.207,6.161,2.207z M50.132,72.793H6.161c-2.18,0-3.954-1.774-3.954-3.954v-6.698h51.878
			v6.698C54.086,71.019,52.312,72.793,50.132,72.793z"/>
	</g>
</g>
</svg>
